<mxfile host="app.diagrams.net" agent="Mozilla/5.0 (Macintosh; Intel Mac OS X 10.15; rv:140.0) Gecko/20100101 Firefox/140.0" version="27.2.0">
  <diagram id="C5RBs43oDa-KdzZeNtuy" name="Page-1">
    <mxGraphModel dx="860" dy="2218" grid="1" gridSize="10" guides="1" tooltips="1" connect="1" arrows="1" fold="1" page="1" pageScale="1" pageWidth="827" pageHeight="1169" math="0" shadow="0">
      <root>
        <mxCell id="WIyWlLk6GJQsqaUBKTNV-0" />
        <mxCell id="WIyWlLk6GJQsqaUBKTNV-1" parent="WIyWlLk6GJQsqaUBKTNV-0" />
        <mxCell id="MYqOvBCMYpxo-4ECaS3--8" value="" style="rounded=0;html=1;jettySize=auto;orthogonalLoop=1;fontSize=16;endArrow=blockThin;endFill=1;strokeWidth=2;shadow=0;labelBackgroundColor=none;edgeStyle=orthogonalEdgeStyle;curved=0;entryX=0.5;entryY=0;entryDx=0;entryDy=0;" parent="WIyWlLk6GJQsqaUBKTNV-1" source="MYqOvBCMYpxo-4ECaS3--9" target="sHfo32fZNC-mHXl1emih-2" edge="1">
          <mxGeometry relative="1" as="geometry">
            <mxPoint x="295" y="-45" as="targetPoint" />
          </mxGeometry>
        </mxCell>
        <mxCell id="MYqOvBCMYpxo-4ECaS3--9" value="&lt;p align=&quot;center&quot;&gt;I am planning to make my training&amp;nbsp;material FAIR&lt;/p&gt;" style="rounded=1;whiteSpace=wrap;html=1;fontSize=16;glass=0;strokeWidth=2;shadow=0;fillColor=none;strokeColor=#6c8ebf;align=center;" parent="WIyWlLk6GJQsqaUBKTNV-1" vertex="1">
          <mxGeometry x="202.5" y="-170" width="175" height="80" as="geometry" />
        </mxCell>
        <mxCell id="MYqOvBCMYpxo-4ECaS3--10" value="&lt;font color=&quot;#009900&quot;&gt;&lt;b&gt;Yes&lt;/b&gt;&lt;/font&gt;" style="rounded=0;html=1;jettySize=auto;orthogonalLoop=1;fontSize=16;endArrow=block;endFill=0;endSize=6;strokeWidth=2;shadow=0;labelBackgroundColor=none;edgeStyle=orthogonalEdgeStyle;strokeColor=#398e2e;entryX=0;entryY=0.5;entryDx=0;entryDy=0;exitX=1;exitY=0.5;exitDx=0;exitDy=0;" parent="WIyWlLk6GJQsqaUBKTNV-1" source="sHfo32fZNC-mHXl1emih-2" target="MYqOvBCMYpxo-4ECaS3--14" edge="1">
          <mxGeometry x="0.0062" y="20" relative="1" as="geometry">
            <mxPoint as="offset" />
            <mxPoint x="480" y="220" as="targetPoint" />
            <mxPoint x="390" y="50" as="sourcePoint" />
          </mxGeometry>
        </mxCell>
        <mxCell id="MYqOvBCMYpxo-4ECaS3--14" value="I recorded a video of the&amp;nbsp;&lt;div&gt;course as part of the training material&lt;/div&gt;" style="rhombus;whiteSpace=wrap;html=1;shadow=0;fontFamily=Helvetica;fontSize=16;align=center;strokeWidth=2;spacing=6;spacingTop=-4;fillColor=none;strokeColor=#82b366;" parent="WIyWlLk6GJQsqaUBKTNV-1" vertex="1">
          <mxGeometry x="470" y="-45" width="190" height="190" as="geometry" />
        </mxCell>
        <mxCell id="JqK_AGXCbZ9T-9h9DLJX-0" value="&lt;font color=&quot;#009900&quot;&gt;&lt;b&gt;Yes&lt;/b&gt;&lt;/font&gt;" style="rounded=0;html=1;jettySize=auto;orthogonalLoop=1;fontSize=16;endArrow=block;endFill=0;endSize=6;strokeWidth=2;shadow=0;labelBackgroundColor=none;edgeStyle=orthogonalEdgeStyle;strokeColor=#398e2e;exitX=0.5;exitY=0;exitDx=0;exitDy=0;entryX=0;entryY=0.5;entryDx=0;entryDy=0;" parent="WIyWlLk6GJQsqaUBKTNV-1" source="MYqOvBCMYpxo-4ECaS3--14" target="FkVeZia7OTmTJSRItcj6-14" edge="1">
          <mxGeometry x="0.0022" y="20" relative="1" as="geometry">
            <mxPoint as="offset" />
            <mxPoint x="620" y="-138.5" as="targetPoint" />
            <mxPoint x="780" y="49.5" as="sourcePoint" />
          </mxGeometry>
        </mxCell>
        <mxCell id="JqK_AGXCbZ9T-9h9DLJX-1" value="I use git to version control the materials" style="rhombus;whiteSpace=wrap;html=1;shadow=0;fontFamily=Helvetica;fontSize=16;align=center;strokeWidth=2;spacing=6;spacingTop=-4;fillColor=none;strokeColor=#82b366;" parent="WIyWlLk6GJQsqaUBKTNV-1" vertex="1">
          <mxGeometry x="760" y="-45" width="190" height="190" as="geometry" />
        </mxCell>
        <mxCell id="JqK_AGXCbZ9T-9h9DLJX-2" value="&lt;font color=&quot;#009900&quot;&gt;&lt;b&gt;Yes&lt;/b&gt;&lt;/font&gt;" style="rounded=0;html=1;jettySize=auto;orthogonalLoop=1;fontSize=15;endArrow=block;endFill=0;endSize=6;strokeWidth=2;shadow=0;labelBackgroundColor=none;edgeStyle=orthogonalEdgeStyle;strokeColor=#398e2e;entryX=0.5;entryY=0;entryDx=0;entryDy=0;exitX=1;exitY=0.5;exitDx=0;exitDy=0;" parent="WIyWlLk6GJQsqaUBKTNV-1" source="JqK_AGXCbZ9T-9h9DLJX-1" target="FkVeZia7OTmTJSRItcj6-15" edge="1">
          <mxGeometry x="0.0022" y="20" relative="1" as="geometry">
            <mxPoint as="offset" />
            <mxPoint x="971" y="230" as="targetPoint" />
            <mxPoint x="1170" y="49.5" as="sourcePoint" />
          </mxGeometry>
        </mxCell>
        <mxCell id="5yuwwDbZiGcKTAIiWKAo-5" style="edgeStyle=orthogonalEdgeStyle;rounded=0;orthogonalLoop=1;jettySize=auto;html=1;exitX=0;exitY=0.5;exitDx=0;exitDy=0;fontSize=15;strokeWidth=2;curved=0;endArrow=blockThin;endFill=1;entryX=1;entryY=0.5;entryDx=0;entryDy=0;" parent="WIyWlLk6GJQsqaUBKTNV-1" source="FkVeZia7OTmTJSRItcj6-20" target="FkVeZia7OTmTJSRItcj6-13" edge="1">
          <mxGeometry relative="1" as="geometry">
            <mxPoint x="547.5" y="422.5" as="sourcePoint" />
            <mxPoint x="380" y="257.5" as="targetPoint" />
          </mxGeometry>
        </mxCell>
        <mxCell id="iMHzxxL7FjKLbcnllSLB-19" value="" style="edgeStyle=orthogonalEdgeStyle;rounded=0;orthogonalLoop=1;jettySize=auto;html=1;strokeWidth=2;exitX=0.5;exitY=1;exitDx=0;exitDy=0;fontSize=15;curved=0;endArrow=blockThin;endFill=1;entryX=0.5;entryY=0;entryDx=0;entryDy=0;" parent="WIyWlLk6GJQsqaUBKTNV-1" source="FkVeZia7OTmTJSRItcj6-15" target="FkVeZia7OTmTJSRItcj6-16" edge="1">
          <mxGeometry relative="1" as="geometry">
            <mxPoint x="971" y="340" as="sourcePoint" />
            <mxPoint x="970" y="380" as="targetPoint" />
          </mxGeometry>
        </mxCell>
        <mxCell id="sHfo32fZNC-mHXl1emih-2" value="The material itself is open" style="rhombus;whiteSpace=wrap;html=1;shadow=0;fontFamily=Helvetica;fontSize=16;align=center;strokeWidth=2;spacing=6;spacingTop=-4;fillColor=none;strokeColor=#82b366;" parent="WIyWlLk6GJQsqaUBKTNV-1" vertex="1">
          <mxGeometry x="195" y="-45" width="190" height="190" as="geometry" />
        </mxCell>
        <mxCell id="sHfo32fZNC-mHXl1emih-4" value="&lt;b&gt;&lt;font color=&quot;#ff8000&quot;&gt;No&lt;/font&gt;&lt;/b&gt;" style="rounded=0;html=1;jettySize=auto;orthogonalLoop=1;fontSize=15;endArrow=block;endFill=0;endSize=6;strokeWidth=2;shadow=0;labelBackgroundColor=none;edgeStyle=orthogonalEdgeStyle;strokeColor=#FF8000;exitX=0.5;exitY=1;exitDx=0;exitDy=0;entryX=0.5;entryY=0;entryDx=0;entryDy=0;" parent="WIyWlLk6GJQsqaUBKTNV-1" source="sHfo32fZNC-mHXl1emih-2" target="FkVeZia7OTmTJSRItcj6-13" edge="1">
          <mxGeometry x="0.0104" y="20" relative="1" as="geometry">
            <mxPoint as="offset" />
            <mxPoint x="290" y="230" as="targetPoint" />
            <mxPoint x="294.57" y="145" as="sourcePoint" />
            <Array as="points" />
          </mxGeometry>
        </mxCell>
        <mxCell id="sHfo32fZNC-mHXl1emih-7" value="&lt;b&gt;&lt;font color=&quot;#ff8000&quot;&gt;No&lt;/font&gt;&lt;/b&gt;" style="rounded=0;html=1;jettySize=auto;orthogonalLoop=1;fontSize=16;endArrow=block;endFill=0;endSize=6;strokeWidth=2;shadow=0;labelBackgroundColor=none;edgeStyle=orthogonalEdgeStyle;strokeColor=#FF8000;entryX=0;entryY=0.5;entryDx=0;entryDy=0;exitX=1;exitY=0.5;exitDx=0;exitDy=0;" parent="WIyWlLk6GJQsqaUBKTNV-1" source="MYqOvBCMYpxo-4ECaS3--14" target="JqK_AGXCbZ9T-9h9DLJX-1" edge="1">
          <mxGeometry x="0.0104" y="20" relative="1" as="geometry">
            <mxPoint as="offset" />
            <mxPoint x="1020" y="150" as="targetPoint" />
            <mxPoint x="654.5" y="145" as="sourcePoint" />
          </mxGeometry>
        </mxCell>
        <mxCell id="sHfo32fZNC-mHXl1emih-9" value="&lt;b&gt;&lt;font color=&quot;#ff8000&quot;&gt;No&lt;/font&gt;&lt;/b&gt;" style="rounded=0;html=1;jettySize=auto;orthogonalLoop=1;fontSize=15;endArrow=block;endFill=0;endSize=6;strokeWidth=2;shadow=0;labelBackgroundColor=none;edgeStyle=orthogonalEdgeStyle;strokeColor=#FF8000;exitX=0.5;exitY=1;exitDx=0;exitDy=0;entryX=0.5;entryY=0;entryDx=0;entryDy=0;" parent="WIyWlLk6GJQsqaUBKTNV-1" source="JqK_AGXCbZ9T-9h9DLJX-1" target="FkVeZia7OTmTJSRItcj6-19" edge="1">
          <mxGeometry x="0.0104" y="20" relative="1" as="geometry">
            <mxPoint as="offset" />
            <mxPoint x="637.5" y="230" as="targetPoint" />
            <mxPoint x="1044.5" y="150" as="sourcePoint" />
            <Array as="points" />
          </mxGeometry>
        </mxCell>
        <mxCell id="iMHzxxL7FjKLbcnllSLB-2" style="edgeStyle=orthogonalEdgeStyle;rounded=0;orthogonalLoop=1;jettySize=auto;html=1;exitX=1;exitY=0.5;exitDx=0;exitDy=0;entryX=0.5;entryY=0;entryDx=0;entryDy=0;strokeWidth=2;fontSize=16;curved=0;endArrow=blockThin;endFill=1;" parent="WIyWlLk6GJQsqaUBKTNV-1" source="FkVeZia7OTmTJSRItcj6-14" target="JqK_AGXCbZ9T-9h9DLJX-1" edge="1">
          <mxGeometry relative="1" as="geometry">
            <mxPoint x="1410" y="240" as="targetPoint" />
            <mxPoint x="800" y="-138.5" as="sourcePoint" />
          </mxGeometry>
        </mxCell>
        <mxCell id="5yuwwDbZiGcKTAIiWKAo-14" value="" style="edgeStyle=orthogonalEdgeStyle;rounded=0;orthogonalLoop=1;jettySize=auto;html=1;strokeWidth=2;fontSize=15;curved=0;endArrow=blockThin;endFill=1;entryX=0.5;entryY=0;entryDx=0;entryDy=0;exitX=0.468;exitY=1.018;exitDx=0;exitDy=0;exitPerimeter=0;" parent="WIyWlLk6GJQsqaUBKTNV-1" target="FkVeZia7OTmTJSRItcj6-21" edge="1">
          <mxGeometry relative="1" as="geometry">
            <mxPoint x="284.24000000000024" y="341.2600000000002" as="sourcePoint" />
            <mxPoint x="290" y="395" as="targetPoint" />
            <Array as="points">
              <mxPoint x="290" y="341" />
            </Array>
          </mxGeometry>
        </mxCell>
        <mxCell id="5yuwwDbZiGcKTAIiWKAo-15" value="" style="edgeStyle=orthogonalEdgeStyle;rounded=0;orthogonalLoop=1;jettySize=auto;html=1;entryX=0;entryY=0.5;entryDx=0;entryDy=0;strokeWidth=2;fontSize=15;curved=0;endArrow=blockThin;endFill=1;exitX=1;exitY=0.5;exitDx=0;exitDy=0;" parent="WIyWlLk6GJQsqaUBKTNV-1" source="FkVeZia7OTmTJSRItcj6-24" target="FkVeZia7OTmTJSRItcj6-17" edge="1">
          <mxGeometry relative="1" as="geometry">
            <mxPoint x="727.5" y="597.5" as="sourcePoint" />
            <mxPoint x="881" y="597.5" as="targetPoint" />
          </mxGeometry>
        </mxCell>
        <mxCell id="5yuwwDbZiGcKTAIiWKAo-17" value="" style="edgeStyle=orthogonalEdgeStyle;rounded=0;orthogonalLoop=1;jettySize=auto;html=1;strokeWidth=2;fontSize=15;curved=0;endArrow=blockThin;endFill=1;exitX=0.5;exitY=1;exitDx=0;exitDy=0;entryX=0.5;entryY=0;entryDx=0;entryDy=0;" parent="WIyWlLk6GJQsqaUBKTNV-1" target="FkVeZia7OTmTJSRItcj6-20" edge="1">
          <mxGeometry relative="1" as="geometry">
            <mxPoint x="637.5" y="340" as="sourcePoint" />
            <mxPoint x="637.5" y="395" as="targetPoint" />
          </mxGeometry>
        </mxCell>
        <mxCell id="FkVeZia7OTmTJSRItcj6-5" value="" style="edgeStyle=orthogonalEdgeStyle;rounded=0;orthogonalLoop=1;jettySize=auto;html=1;strokeWidth=2;fontSize=15;curved=0;endArrow=blockThin;endFill=1;exitX=1;exitY=0.5;exitDx=0;exitDy=0;entryX=0;entryY=0.5;entryDx=0;entryDy=0;" parent="WIyWlLk6GJQsqaUBKTNV-1" source="FkVeZia7OTmTJSRItcj6-23" target="FkVeZia7OTmTJSRItcj6-24" edge="1">
          <mxGeometry relative="1" as="geometry">
            <mxPoint x="380" y="597.5" as="sourcePoint" />
            <mxPoint x="547.5" y="597.5" as="targetPoint" />
          </mxGeometry>
        </mxCell>
        <mxCell id="FkVeZia7OTmTJSRItcj6-13" value="&lt;div&gt;&lt;font style=&quot;font-size: 16px;&quot;&gt;&lt;span style=&quot;font-weight: 700;&quot;&gt;1. Metadata&lt;/span&gt;&lt;/font&gt;&lt;p style=&quot;margin-top: 0pt; margin-bottom: 0pt; margin-left: 0in; direction: ltr; unicode-bidi: embed; word-break: normal;&quot;&gt;&lt;font style=&quot;font-size: 16px;&quot;&gt;The materials are described with rich and standardized metadata. &lt;font&gt;&lt;font&gt;&lt;span&gt;&lt;br&gt;&lt;/span&gt;&lt;/font&gt;&lt;/font&gt;&lt;/font&gt;&lt;/p&gt;&lt;/div&gt;" style="rounded=0;whiteSpace=wrap;html=1;spacing=5;verticalAlign=top;strokeWidth=2;" parent="WIyWlLk6GJQsqaUBKTNV-1" vertex="1">
          <mxGeometry x="210" y="230" width="160" height="120" as="geometry" />
        </mxCell>
        <mxCell id="FkVeZia7OTmTJSRItcj6-14" value="&lt;div&gt;&lt;font&gt;&lt;span style=&quot;font-weight: 700;&quot;&gt;8. Video materials&lt;/span&gt;&lt;/font&gt;&lt;p style=&quot;margin-top: 0pt; margin-bottom: 0pt; margin-left: 0in; direction: ltr; unicode-bidi: embed; word-break: normal;&quot;&gt;&lt;font&gt;&lt;span&gt;Publish your videos on an accessible platform&lt;/span&gt;&lt;/font&gt;&lt;/p&gt;&lt;/div&gt;" style="rounded=0;whiteSpace=wrap;html=1;spacing=5;verticalAlign=top;strokeWidth=2;fontSize=16;" parent="WIyWlLk6GJQsqaUBKTNV-1" vertex="1">
          <mxGeometry x="630" y="-190" width="160" height="120" as="geometry" />
        </mxCell>
        <mxCell id="FkVeZia7OTmTJSRItcj6-15" value="&lt;div&gt;&lt;font style=&quot;font-size: 16px;&quot;&gt;&lt;span style=&quot;font-weight: 700;&quot;&gt;5. Versioning system&lt;/span&gt;&lt;/font&gt;&lt;p style=&quot;margin-top: 0pt; margin-bottom: 0pt; margin-left: 0in; direction: ltr; unicode-bidi: embed; word-break: normal;&quot;&gt;&lt;font size=&quot;3&quot;&gt;&lt;span&gt;Use git to publish and collaborate on your material&lt;/span&gt;&lt;/font&gt;&lt;/p&gt;&lt;/div&gt;" style="rounded=0;whiteSpace=wrap;html=1;spacing=5;verticalAlign=top;strokeWidth=2;" parent="WIyWlLk6GJQsqaUBKTNV-1" vertex="1">
          <mxGeometry x="891" y="200" width="160" height="120" as="geometry" />
        </mxCell>
        <mxCell id="FkVeZia7OTmTJSRItcj6-16" value="&lt;div&gt;&lt;font style=&quot;font-size: 16px;&quot;&gt;&lt;span style=&quot;font-weight: 700;&quot;&gt;9. Glittr.org&lt;/span&gt;&lt;/font&gt;&lt;p style=&quot;margin-top: 0pt; margin-bottom: 0pt; margin-left: 0in; direction: ltr; unicode-bidi: embed; word-break: normal;&quot;&gt;&lt;font size=&quot;3&quot;&gt;&lt;span&gt;Register the materials in Glittr.org&lt;/span&gt;&lt;/font&gt;&lt;/p&gt;&lt;/div&gt;" style="rounded=0;whiteSpace=wrap;html=1;spacing=5;verticalAlign=top;strokeWidth=2;" parent="WIyWlLk6GJQsqaUBKTNV-1" vertex="1">
          <mxGeometry x="891" y="385" width="160" height="120" as="geometry" />
        </mxCell>
        <mxCell id="FkVeZia7OTmTJSRItcj6-17" value="&lt;div&gt;&lt;font style=&quot;font-size: 16px;&quot;&gt;&lt;span style=&quot;font-weight: 700;&quot;&gt;10. TeSS&lt;/span&gt;&lt;/font&gt;&lt;p style=&quot;margin-top: 0pt; margin-bottom: 0pt; margin-left: 0in; direction: ltr; unicode-bidi: embed; word-break: normal;&quot;&gt;&lt;font size=&quot;3&quot;&gt;Register the metadata in ELIXIR TeSS&lt;/font&gt;&lt;/p&gt;&lt;/div&gt;" style="rounded=0;whiteSpace=wrap;html=1;spacing=5;verticalAlign=top;strokeWidth=2;" parent="WIyWlLk6GJQsqaUBKTNV-1" vertex="1">
          <mxGeometry x="881" y="560" width="160" height="120" as="geometry" />
        </mxCell>
        <mxCell id="FkVeZia7OTmTJSRItcj6-18" value="" style="edgeStyle=orthogonalEdgeStyle;rounded=0;orthogonalLoop=1;jettySize=auto;html=1;strokeWidth=2;exitX=0;exitY=0.5;exitDx=0;exitDy=0;fontSize=15;curved=0;endArrow=blockThin;endFill=1;entryX=1;entryY=0.5;entryDx=0;entryDy=0;" parent="WIyWlLk6GJQsqaUBKTNV-1" source="FkVeZia7OTmTJSRItcj6-16" target="FkVeZia7OTmTJSRItcj6-19" edge="1">
          <mxGeometry relative="1" as="geometry">
            <mxPoint x="981" y="330" as="sourcePoint" />
            <mxPoint x="780" y="300" as="targetPoint" />
          </mxGeometry>
        </mxCell>
        <mxCell id="FkVeZia7OTmTJSRItcj6-19" value="&lt;div&gt;&lt;font style=&quot;font-size: 16px;&quot;&gt;&lt;span style=&quot;font-weight: 700;&quot;&gt;4. Accessibility&lt;/span&gt;&lt;/font&gt;&lt;p style=&quot;margin-top: 0pt; margin-bottom: 0pt; margin-left: 0in; direction: ltr; unicode-bidi: embed; word-break: normal;&quot;&gt;&lt;font size=&quot;3&quot;&gt;&lt;span&gt;Publish material in a platform and format that is accessible&amp;nbsp;&lt;/span&gt;&lt;/font&gt;&lt;/p&gt;&lt;/div&gt;" style="rounded=0;whiteSpace=wrap;html=1;spacing=5;verticalAlign=top;strokeWidth=2;" parent="WIyWlLk6GJQsqaUBKTNV-1" vertex="1">
          <mxGeometry x="557.5" y="230" width="160" height="120" as="geometry" />
        </mxCell>
        <mxCell id="FkVeZia7OTmTJSRItcj6-20" value="&lt;div&gt;&lt;font style=&quot;font-size: 16px;&quot;&gt;&lt;span style=&quot;font-weight: 700;&quot;&gt;6. Zenodo&lt;/span&gt;&lt;/font&gt;&lt;p style=&quot;margin-top: 0pt; margin-bottom: 0pt; margin-left: 0in; direction: ltr; unicode-bidi: embed; word-break: normal;&quot;&gt;&lt;font size=&quot;3&quot;&gt;&lt;span&gt;Publish your materials on Zenodo for long term storage&amp;nbsp;&lt;/span&gt;&lt;/font&gt;&lt;/p&gt;&lt;/div&gt;" style="rounded=0;whiteSpace=wrap;html=1;spacing=5;verticalAlign=top;strokeWidth=2;" parent="WIyWlLk6GJQsqaUBKTNV-1" vertex="1">
          <mxGeometry x="557.5" y="395" width="160" height="120" as="geometry" />
        </mxCell>
        <mxCell id="FkVeZia7OTmTJSRItcj6-21" value="&lt;div&gt;&lt;font style=&quot;font-size: 16px;&quot;&gt;&lt;span style=&quot;font-weight: 700;&quot;&gt;2. Attribution&lt;/span&gt;&lt;/font&gt;&lt;p style=&quot;margin-top: 0pt; margin-bottom: 0pt; margin-left: 0in; direction: ltr; unicode-bidi: embed; word-break: normal;&quot;&gt;&lt;font size=&quot;3&quot;&gt;&lt;span&gt;&amp;nbsp;Give appropriate credit to the owners of reused materials&amp;nbsp;&lt;/span&gt;&lt;/font&gt;&lt;/p&gt;&lt;/div&gt;" style="rounded=0;whiteSpace=wrap;html=1;spacing=5;verticalAlign=top;strokeWidth=2;" parent="WIyWlLk6GJQsqaUBKTNV-1" vertex="1">
          <mxGeometry x="210" y="395" width="160" height="120" as="geometry" />
        </mxCell>
        <mxCell id="FkVeZia7OTmTJSRItcj6-22" value="" style="edgeStyle=orthogonalEdgeStyle;rounded=0;orthogonalLoop=1;jettySize=auto;html=1;strokeWidth=2;fontSize=15;curved=0;endArrow=blockThin;endFill=1;exitX=0.5;exitY=1;exitDx=0;exitDy=0;entryX=0.5;entryY=0;entryDx=0;entryDy=0;" parent="WIyWlLk6GJQsqaUBKTNV-1" source="FkVeZia7OTmTJSRItcj6-21" target="FkVeZia7OTmTJSRItcj6-23" edge="1">
          <mxGeometry relative="1" as="geometry">
            <mxPoint x="390" y="608" as="sourcePoint" />
            <mxPoint x="290" y="562" as="targetPoint" />
          </mxGeometry>
        </mxCell>
        <mxCell id="FkVeZia7OTmTJSRItcj6-23" value="&lt;div&gt;&lt;font style=&quot;font-size: 16px;&quot;&gt;&lt;span style=&quot;font-weight: 700;&quot;&gt;3. License&lt;/span&gt;&lt;/font&gt;&lt;p style=&quot;margin-top: 0pt; margin-bottom: 0pt; margin-left: 0in; direction: ltr; unicode-bidi: embed; word-break: normal;&quot;&gt;&lt;font size=&quot;3&quot;&gt;Choose and assign an appropiate license, e.g. CC-BY-4.0&lt;/font&gt;&lt;/p&gt;&lt;/div&gt;" style="rounded=0;whiteSpace=wrap;html=1;spacing=5;verticalAlign=top;strokeWidth=2;" parent="WIyWlLk6GJQsqaUBKTNV-1" vertex="1">
          <mxGeometry x="210" y="560" width="160" height="120" as="geometry" />
        </mxCell>
        <mxCell id="FkVeZia7OTmTJSRItcj6-24" value="&lt;div&gt;&lt;font style=&quot;font-size: 16px;&quot;&gt;&lt;span style=&quot;font-weight: 700;&quot;&gt;7. Persistent identifier&lt;/span&gt;&lt;/font&gt;&lt;p style=&quot;margin-top: 0pt; margin-bottom: 0pt; margin-left: 0in; direction: ltr; unicode-bidi: embed; word-break: normal;&quot;&gt;&lt;font size=&quot;3&quot;&gt;Validate your material/metadata&amp;nbsp; e.g. has a DOI&lt;/font&gt;&lt;/p&gt;&lt;/div&gt;" style="rounded=0;whiteSpace=wrap;html=1;spacing=5;verticalAlign=top;strokeWidth=2;" parent="WIyWlLk6GJQsqaUBKTNV-1" vertex="1">
          <mxGeometry x="557.5" y="560" width="160" height="120" as="geometry" />
        </mxCell>
        <mxCell id="FkVeZia7OTmTJSRItcj6-25" value="&lt;div&gt;&lt;font style=&quot;font-size: 16px;&quot;&gt;&lt;span style=&quot;font-weight: 700;&quot;&gt;11. Communication&lt;/span&gt;&lt;/font&gt;&lt;p style=&quot;margin-top: 0pt; margin-bottom: 0pt; margin-left: 0in; direction: ltr; unicode-bidi: embed; word-break: normal;&quot;&gt;&lt;font size=&quot;3&quot;&gt;Promote your training materials so others can reuse!&lt;/font&gt;&lt;/p&gt;&lt;/div&gt;" style="rounded=0;whiteSpace=wrap;html=1;spacing=5;verticalAlign=top;strokeWidth=2;" parent="WIyWlLk6GJQsqaUBKTNV-1" vertex="1">
          <mxGeometry x="881" y="740" width="160" height="120" as="geometry" />
        </mxCell>
        <mxCell id="FkVeZia7OTmTJSRItcj6-27" value="" style="edgeStyle=orthogonalEdgeStyle;rounded=0;orthogonalLoop=1;jettySize=auto;html=1;strokeWidth=2;fontSize=15;curved=0;endArrow=blockThin;endFill=1;entryX=0.5;entryY=0;entryDx=0;entryDy=0;exitX=0.5;exitY=1;exitDx=0;exitDy=0;" parent="WIyWlLk6GJQsqaUBKTNV-1" source="FkVeZia7OTmTJSRItcj6-17" target="FkVeZia7OTmTJSRItcj6-25" edge="1">
          <mxGeometry relative="1" as="geometry">
            <mxPoint x="1080" y="370" as="sourcePoint" />
            <mxPoint x="981" y="395" as="targetPoint" />
          </mxGeometry>
        </mxCell>
      </root>
    </mxGraphModel>
  </diagram>
</mxfile>
